<mxfile host="app.diagrams.net" modified="2023-12-08T00:44:13.138Z" agent="Mozilla/5.0 (Windows NT 10.0; Win64; x64) AppleWebKit/537.36 (KHTML, like Gecko) Chrome/119.0.0.0 Safari/537.36 Edg/119.0.0.0" etag="gufVZrZLxKKozcT1bB2u" version="22.1.7" type="device" pages="2">
  <diagram name="Page-1" id="1tu0jK2mL6K-de7JHzTV">
    <mxGraphModel dx="873" dy="576" grid="0" gridSize="10" guides="1" tooltips="1" connect="1" arrows="1" fold="1" page="0" pageScale="1" pageWidth="850" pageHeight="1100" math="0" shadow="0">
      <root>
        <mxCell id="0" />
        <mxCell id="1" parent="0" />
        <mxCell id="CWrnp4UgBvMhapTAnFyO-1" value="" style="whiteSpace=wrap;html=1;aspect=fixed;fontSize=16;rotation=-136;" vertex="1" parent="1">
          <mxGeometry x="98" y="88" width="80" height="80" as="geometry" />
        </mxCell>
        <mxCell id="CWrnp4UgBvMhapTAnFyO-6" value="Roblox&lt;br&gt;By:Arien" style="text;strokeColor=none;fillColor=none;html=1;align=center;verticalAlign=middle;whiteSpace=wrap;rounded=0;fontSize=16;" vertex="1" parent="1">
          <mxGeometry x="-335.5" y="11" width="104" height="50" as="geometry" />
        </mxCell>
      </root>
    </mxGraphModel>
  </diagram>
  <diagram id="GSWGTBL6I3ihKsZArscA" name="Page-2">
    <mxGraphModel dx="473" dy="576" grid="0" gridSize="10" guides="1" tooltips="1" connect="1" arrows="1" fold="1" page="0" pageScale="1" pageWidth="850" pageHeight="1100" math="0" shadow="0">
      <root>
        <mxCell id="0" />
        <mxCell id="1" parent="0" />
      </root>
    </mxGraphModel>
  </diagram>
</mxfile>
